<svg width="112.246094" height="228.730469" viewBox="0 0 112.246 228.73" fill="none" xmlns="http://www.w3.org/2000/svg" xmlns:xlink="http://www.w3.org/1999/xlink">
	<desc>
			Created with Pixso.
	</desc>
	<defs/>
	<path id="2" d="M4.57e-5 207.47L4.57e-5 228.73L106.98 228.73L106.98 203.5L35.27 203.5L87.36 124Q94.06 113.95 99.66 104.45Q105.27 94.88 108.76 84.01Q112.24 73.07 112.24 58.51Q112.24 31.03 98.77 15.51Q97.15 13.63 95.32 11.98Q82.05 0 57.96 0Q37.8 0 25.63 8.13Q21.79 10.67 18.62 13.88Q11.74 20.83 7.99 30.89Q2.52 45.59 2.52 66.03L2.52 73.89L32.47 73.89L32.47 66.3Q32.47 55.43 34.72 45.93Q36.98 36.36 42.86 30.48Q43.56 29.78 44.34 29.15Q50.01 24.6 59.33 24.6Q68.15 24.6 73.25 28.96Q75.46 30.85 76.97 33.56Q82.03 42.51 82.03 58.24Q82.03 70.82 78.54 80.45Q76.88 85.05 74.76 89.44Q72.44 94.24 69.58 98.77Q64.12 107.46 57.69 117.57L4.57e-5 207.47Z" fill="#F2F2F2" fill-opacity="1.000000" fill-rule="evenodd"/>
</svg>
