<svg width="80.000000" height="82.571411" viewBox="0 0 80 82.5714" fill="none" xmlns="http://www.w3.org/2000/svg" xmlns:xlink="http://www.w3.org/1999/xlink">
	<desc>
			Created with Pixso.
	</desc>
	<defs>
		<clipPath id="clip2403_1196">
			<rect id="icon_gift" rx="-0.500000" width="79.000000" height="81.571434" transform="translate(0.500000 0.500000)" fill="white" fill-opacity="0"/>
		</clipPath>
	</defs>
	<rect id="icon_gift" rx="-0.500000" width="79.000000" height="81.571434" transform="translate(0.500000 0.500000)" fill="#FFFFFF" fill-opacity="0"/>
	<g clip-path="url(#clip2403_1196)">
		<path id="Vector" d="M65.65 35.82L14.39 35.82C12.59 35.82 11.12 34.36 11.12 32.56L11.12 22.79C11.12 20.99 12.59 19.53 14.39 19.53L65.65 19.53C67.45 19.53 68.91 20.99 68.91 22.79L68.91 32.56C68.91 34.36 67.45 35.82 65.65 35.82ZM14.39 22.03C13.97 22.03 13.62 22.38 13.62 22.79L13.62 32.56C13.62 32.98 13.97 33.32 14.39 33.32L65.65 33.32C66.07 33.32 66.41 32.98 66.41 32.56L66.41 22.79C66.41 22.38 66.06 22.03 65.65 22.03L14.39 22.03Z" fill="#FFFFFF" fill-opacity="1.000000" fill-rule="nonzero"/>
		<path id="Vector" d="M58.5 69.3L21.53 69.3C18.07 69.3 15.25 66.49 15.25 63.02L15.25 34.57C15.25 33.88 15.81 33.32 16.5 33.32C17.19 33.32 17.75 33.88 17.75 34.57L17.75 63.02C17.75 65.11 19.45 66.8 21.53 66.8L58.5 66.8C60.59 66.8 62.28 65.11 62.28 63.02L62.28 34.57C62.28 33.88 62.84 33.32 63.53 33.32C64.22 33.32 64.78 33.88 64.78 34.57L64.78 63.02C64.78 66.49 61.97 69.3 58.5 69.3Z" fill="#FFFFFF" fill-opacity="1.000000" fill-rule="nonzero"/>
		<path id="Vector" d="M40.02 69.3C39.33 69.3 38.77 68.74 38.77 68.05L38.77 34.57C38.77 33.88 39.33 33.32 40.02 33.32C40.71 33.32 41.27 33.88 41.27 34.57L41.27 68.05C41.27 68.74 40.71 69.3 40.02 69.3Z" fill="#FFFFFF" fill-opacity="1.000000" fill-rule="nonzero"/>
		<path id="Vector" d="M24.42 22.02C20.5 19.9 19.04 15 21.16 11.08C23.28 7.17 28.19 5.71 32.1 7.83C38.06 11.06 41.28 20.07 41.42 20.45L39.06 21.28C39.03 21.19 36.02 12.79 30.91 10.03C28.21 8.56 24.82 9.57 23.36 12.27C21.9 14.97 22.91 18.36 25.61 19.82L24.42 22.02Z" fill="#FFFFFF" fill-opacity="1.000000" fill-rule="nonzero"/>
		<path id="Vector" d="M55.62 22.02L54.43 19.82C55.74 19.11 56.69 17.94 57.12 16.51C57.54 15.09 57.38 13.58 56.67 12.27C55.97 10.96 54.79 10.01 53.37 9.58C51.94 9.16 50.43 9.32 49.13 10.03C44.02 12.79 41.01 21.19 40.98 21.28L38.62 20.45C38.75 20.07 41.97 11.06 47.94 7.83C49.83 6.8 52.01 6.57 54.08 7.19C56.15 7.8 57.85 9.19 58.87 11.08C59.9 12.98 60.13 15.16 59.51 17.23C58.9 19.29 57.51 21 55.62 22.02Z" fill="#FFFFFF" fill-opacity="1.000000" fill-rule="nonzero"/>
		<path id="Vector" d="M63.53 52.56L16.5 52.56C15.81 52.56 15.25 52 15.25 51.31C15.25 50.62 15.81 50.06 16.5 50.06L63.53 50.06C64.22 50.06 64.78 50.62 64.78 51.31C64.78 52 64.22 52.56 63.53 52.56Z" fill="#FFFFFF" fill-opacity="1.000000" fill-rule="nonzero"/>
	</g>
</svg>
