<svg width="101.000000" height="18.000000" viewBox="0 0 101 18" fill="none" xmlns="http://www.w3.org/2000/svg" xmlns:xlink="http://www.w3.org/1999/xlink">
	<desc>
			Created with Pixso.
	</desc>
	<defs>
		<clipPath id="clip135_3354">
			<rect id="logo 2" rx="-0.500000" width="100.000000" height="17.000000" transform="translate(0.500000 0.500000)" fill="white" fill-opacity="0"/>
		</clipPath>
	</defs>
	<rect id="logo 2" rx="-0.500000" width="100.000000" height="17.000000" transform="translate(0.500000 0.500000)" fill="#FFFFFF" fill-opacity="0"/>
	<g clip-path="url(#clip135_3354)">
		<path id="Vector" d="M1.26 16.53C0.36 15.27 -0.08 13.76 7.62e-6 12.23L7.62e-6 5.84C-0.11 4.29 0.3 2.75 1.18 1.46C2.05 0.46 3.39 0 5.37 0C7.34 0 8.61 0.46 9.4 1.3C10.26 2.37 10.68 3.72 10.59 5.07L10.59 6.61L6.71 6.61L6.71 4.84C6.74 4.32 6.66 3.79 6.48 3.3C6.38 3.1 6.22 2.94 6.02 2.83C5.82 2.72 5.6 2.67 5.37 2.69C4.82 2.69 4.42 2.84 4.26 3.23C4.08 3.77 4 4.34 4.03 4.92L4.03 13.15C3.98 13.71 4.09 14.26 4.34 14.76C4.5 15.15 4.89 15.3 5.45 15.3C6 15.3 6.32 15.15 6.48 14.76C6.66 14.24 6.74 13.7 6.71 13.15L6.71 11.3L10.59 11.3L10.59 12.84C10.67 14.22 10.25 15.58 9.4 16.69C8.61 17.61 7.27 18.07 5.37 18.07C3.47 18 2.05 17.53 1.26 16.53Z" fill="#111111" fill-opacity="1.000000" fill-rule="nonzero"/>
		<path id="Vector" d="M15.25 0.23L19.75 0.23L23.07 17.76L19.44 17.76L18.8 14.07L16.2 14.07L15.56 17.76L11.85 17.76L15.25 0.23ZM18.49 11.76L17.54 4.92L16.59 11.76L18.49 11.76Z" fill="#111111" fill-opacity="1.000000" fill-rule="nonzero"/>
		<path id="Vector" d="M25.84 3.15L23.15 3.15L23.15 0.23L32.56 0.23L32.56 3.07L29.87 3.07L29.87 17.76L25.84 17.76L25.84 3.15Z" fill="#111111" fill-opacity="1.000000" fill-rule="nonzero"/>
		<path id="Vector" d="M39.75 0.23L46.7 0.23L46.7 2.07L42.2 2.07L42.2 7.84L45.83 7.84L45.83 9.61L42.2 9.61L42.2 16.07L46.7 16.07L46.7 17.84L39.67 17.84L39.67 0.23L39.75 0.23Z" fill="#111111" fill-opacity="1.000000" fill-rule="nonzero"/>
		<path id="Vector" d="M48.76 0.23L50.5 0.23L55.63 11.84L55.63 0.23L57.69 0.23L57.69 17.76L56.11 17.76L50.89 5.76L50.89 17.76L48.76 17.76L48.76 0.23Z" fill="#111111" fill-opacity="1.000000" fill-rule="nonzero"/>
		<path id="Vector" d="M60.06 0.23L67.01 0.23L67.01 2.07L62.51 2.07L62.51 7.84L66.14 7.84L66.14 9.61L62.51 9.61L62.51 16.07L67.01 16.07L67.01 17.84L60.06 17.84L60.06 0.23Z" fill="#111111" fill-opacity="1.000000" fill-rule="nonzero"/>
		<path id="Vector" d="M69.07 0.23L72.7 0.23C74.13 0.13 75.55 0.51 76.73 1.3C77.6 2 78 3.23 78 4.84C78 7.07 77.29 8.46 75.78 8.92L78.31 17.69L75.86 17.69L73.49 9.46L71.52 9.46L71.52 17.69L68.99 17.69L68.99 0.23L69.07 0.23ZM72.54 7.76C73.36 7.83 74.17 7.61 74.84 7.15C75.31 6.76 75.55 6 75.55 4.84C75.57 4.27 75.49 3.7 75.31 3.15C75.13 2.76 74.83 2.43 74.44 2.23C73.9 1.98 73.3 1.88 72.7 1.92L71.6 1.92L71.6 7.69L72.54 7.69L72.54 7.76Z" fill="#111111" fill-opacity="1.000000" fill-rule="nonzero"/>
		<path id="Vector" d="M81.16 16.46C80.34 15.11 79.95 13.56 80.05 12L80.05 6.15C80.03 5.03 80.17 3.92 80.45 2.84C80.71 2.03 81.24 1.33 81.95 0.84C82.83 0.33 83.85 0.09 84.87 0.15C86.53 0.15 87.72 0.53 88.43 1.38C89.25 2.5 89.64 3.86 89.54 5.23L89.54 5.84L87.16 5.84L87.16 5.3C87.17 4.66 87.12 4.02 87.01 3.38C86.94 2.98 86.71 2.62 86.37 2.38C85.93 2.1 85.4 1.96 84.87 2C84.31 1.96 83.75 2.12 83.29 2.46C83.11 2.61 82.95 2.8 82.85 3.01C82.74 3.22 82.67 3.45 82.66 3.69C82.56 4.37 82.5 5.07 82.5 5.76L82.5 12.3C82.44 13.3 82.61 14.3 82.98 15.23C83.29 15.84 83.92 16.07 84.87 16.07C85.25 16.12 85.63 16.05 85.96 15.89C86.3 15.73 86.58 15.47 86.77 15.15C87.19 14.18 87.38 13.12 87.32 12.07L87.32 10.84L85.03 10.84L85.03 9.07L89.61 9.07L89.61 17.76L88.03 17.76L87.8 15.76C87.59 16.43 87.16 17.02 86.57 17.42C85.98 17.83 85.28 18.03 84.56 18C83.9 18.03 83.25 17.91 82.66 17.64C82.07 17.37 81.55 16.97 81.16 16.46Z" fill="#111111" fill-opacity="1.000000" fill-rule="nonzero"/>
		<path id="Vector" d="M94.67 11.61L90.8 0.3L93.17 0.3L95.94 8.76L98.62 0.3L101 0.3L97.12 11.61L97.12 17.76L94.75 17.76L94.75 11.61L94.67 11.61Z" fill="#111111" fill-opacity="1.000000" fill-rule="nonzero"/>
	</g>
</svg>
