<svg width="111.425781" height="231.259766" viewBox="0 0 111.426 231.26" fill="none" xmlns="http://www.w3.org/2000/svg" xmlns:xlink="http://www.w3.org/1999/xlink">
	<desc>
			Created with Pixso.
	</desc>
	<defs/>
	<path id="3" d="M24.6 224.28Q36.98 231.26 55.43 231.26Q75.6 231.26 87.91 222.98Q91.61 220.49 94.71 217.4Q101.9 210.21 105.82 199.74Q111.42 184.77 111.42 164.6Q111.42 149.22 107.46 137.6Q103.56 125.98 96.38 118.46Q93.74 115.64 90.66 113.45Q85.44 109.73 78.95 107.8Q87.23 105.28 93.63 100.34Q98.7 96.42 102.6 90.98Q111.42 78.68 111.42 58.24Q111.42 39.99 105.27 27Q101.92 19.9 96.74 14.6Q92.39 10.15 86.74 6.97Q74.44 0 55.71 0Q37.25 0 24.74 6.97Q18.63 10.39 14.04 15.25Q9.28 20.28 6.15 26.86Q3.05e-5 39.71 3.05e-5 57.9L3.05e-5 65.48L29.66 65.48L29.66 60.7Q30.21 44.77 35.27 34.58Q36.53 32.02 38.44 30.1Q44.17 24.33 55.71 24.33Q68.46 24.33 74.21 30.68Q75.4 31.98 76.28 33.56Q81.48 42.79 81.48 58.24Q81.48 76.42 74.44 84.28Q67.47 92.08 51.54 92.62L47.57 92.62L47.57 122.63L49.62 122.63Q50.92 122.63 51.81 122.91Q64.13 123.72 70.91 130.27Q73.19 132.48 74.85 135.35Q81.48 146.69 81.48 164.6Q81.48 176.91 79.5 186.48Q77.51 195.98 71.91 201.18Q66.37 206.3 55.43 206.3Q45.04 206.3 39.58 201.59Q39.16 201.22 38.76 200.83Q34.01 196.18 32.06 188.67Q29.94 180.53 29.66 170.48L29.66 165.43L3.05e-5 165.43L3.05e-5 173.01Q3.05e-5 190.92 6.15 204.12Q9.6 211.48 14.99 216.93Q19.2 221.19 24.6 224.28Z" fill="#F2F2F2" fill-opacity="1.000000" fill-rule="evenodd"/>
</svg>
