<svg width="33.320000" height="37.610001" viewBox="0 0 33.32 37.61" fill="none" xmlns="http://www.w3.org/2000/svg" xmlns:xlink="http://www.w3.org/1999/xlink">
	<desc>
			Created with Pixso.
	</desc>
	<defs>
		<clipPath id="clip153_267">
			<rect id="logo-mobile " rx="-0.500000" width="32.320000" height="36.610001" transform="translate(0.500000 0.500000)" fill="white" fill-opacity="0"/>
		</clipPath>
	</defs>
	<rect id="logo-mobile " rx="-0.500000" width="32.320000" height="36.610001" transform="translate(0.500000 0.500000)" fill="#FFFFFF" fill-opacity="0"/>
	<g clip-path="url(#clip153_267)">
		<path id="Vector" d="M6.07 20.72L6.07 18.45C12.75 17.54 19.49 17.09 26.24 17.12C26.24 17.73 26.24 18.34 26.18 18.95C28.09 18.09 30.11 17.48 32.18 17.12C30.86 13.72 28.46 10.84 25.34 8.93C22.23 7.02 18.57 6.18 14.94 6.55C11.3 6.92 7.89 8.48 5.22 10.98C2.56 13.48 0.79 16.78 0.19 20.39L6.07 20.72Z" fill="#FDC305" fill-opacity="1.000000" fill-rule="nonzero"/>
		<path id="Vector" d="M27.24 24.23C26.08 25.51 25.85 25.43 25.85 27.68C25.85 28.59 25.85 32.58 25.85 36.86C28.14 35.34 30.02 33.28 31.32 30.86C32.63 28.45 33.31 25.74 33.32 23C33.3 21.95 33.19 20.92 33 19.9C30.92 21.12 28.99 22.58 27.24 24.23Z" fill="#FDC305" fill-opacity="1.000000" fill-rule="nonzero"/>
		<path id="Vector" d="M6.36 25.72C6.36 25.72 2.57 24.28 1.16 23.89C0.78 23.76 0.39 23.67 0 23.61C0.1 26.49 0.96 29.3 2.48 31.75C4 34.21 6.14 36.22 8.68 37.61L6.36 25.72Z" fill="#FDC305" fill-opacity="1.000000" fill-rule="nonzero"/>
		<path id="Vector" d="M26.29 17.12C26.33 11.59 25.86 6.08 24.89 0.65C24.89 0.65 24.75 -0.64 24 0.41C23.41 1.65 23 2.98 22.8 4.35C18.54 4.07 14.26 4.18 10.03 4.69C9.24 2 7.85 0.75 7.18 1C6.51 1.25 6.46 4.31 6.46 4.31L6.13 18.41C12.81 17.5 19.54 17.07 26.29 17.12Z" fill="#F06351" fill-opacity="1.000000" fill-rule="nonzero"/>
		<path id="Vector" d="M12.41 14C12.41 13.91 13.41 14.68 13.82 14.92C14.23 15.16 14.43 15.34 14.43 15.51C14.43 15.68 14.16 15.85 13.8 15.85C13.44 15.85 12.89 15.73 12.8 15.58L13.74 15.58L14.03 15.58C13.42 15.12 12.87 14.59 12.41 14Z" fill="#000000" fill-opacity="1.000000" fill-rule="nonzero"/>
		<path id="Vector" d="M19.89 14.11L18.79 15.44C18.79 15.5 18.62 15.79 18.98 15.74C19.39 15.67 19.8 15.58 20.2 15.45C20.31 15.45 20.27 15.26 20.09 15.28C19.91 15.3 19.4 15.33 19.09 15.39L19.93 14.13C19.93 14.13 20 14 19.89 14.11Z" fill="#000000" fill-opacity="1.000000" fill-rule="nonzero"/>
		<path id="Vector" d="M16.75 20.2C17.21 19.99 17.59 19.64 17.84 19.2C18.12 18.54 17.84 18.29 17.4 18.2C16.79 18.09 16.17 18.21 15.66 18.54C15.27 18.9 15.32 19.26 15.61 19.54C15.96 19.8 16.34 20.02 16.75 20.2Z" fill="#000000" fill-opacity="1.000000" fill-rule="nonzero"/>
		<path id="Vector" d="M16.35 21.45C16.23 21.67 16.08 21.88 15.89 22.05C15.6 22.27 15.25 22.41 14.89 22.43C14.36 22.47 13.84 22.31 13.42 22C13.22 21.88 13.04 21.73 12.89 21.56C12.78 21.44 12.66 21.36 12.53 21.3C12.53 21.3 13.28 25.4 15.1 26.05C16.92 26.7 17.24 25.3 17.29 24.92C17.36 23.78 17.07 22.65 16.48 21.69C16.45 21.38 16.45 21.58 16.35 21.45Z" fill="#F06351" fill-opacity="1.000000" fill-rule="nonzero"/>
		<path id="Vector" d="M14.71 22.59C14.24 22.52 13.79 22.36 13.39 22.12C12.99 21.87 12.65 21.55 12.38 21.17C12.36 21.15 12.35 21.14 12.34 21.12C12.34 21.1 12.33 21.08 12.33 21.07C12.33 21.05 12.34 21.03 12.34 21.01C12.35 20.99 12.36 20.98 12.38 20.97C12.39 20.95 12.4 20.94 12.42 20.93C12.44 20.93 12.46 20.92 12.48 20.92C12.49 20.92 12.51 20.93 12.53 20.93C12.55 20.94 12.56 20.95 12.58 20.97C13.08 21.66 13.84 22.13 14.69 22.27C15.02 22.24 15.34 22.14 15.62 21.96C15.9 21.79 16.14 21.55 16.32 21.27L16.45 21.08L16.56 21.29C16.56 21.29 16.93 22.05 17.56 22.09C18.19 22.13 18.61 21.68 19.17 20.81C19.18 20.79 19.19 20.78 19.21 20.77C19.23 20.77 19.25 20.76 19.27 20.76C19.28 20.76 19.3 20.77 19.32 20.77C19.34 20.78 19.35 20.79 19.37 20.81C19.4 20.83 19.42 20.86 19.43 20.9C19.44 20.93 19.43 20.97 19.42 21.01C18.78 22.01 18.15 22.45 17.54 22.41C17.3 22.37 17.08 22.29 16.89 22.15C16.69 22.02 16.53 21.85 16.42 21.65C16.22 21.92 15.96 22.15 15.67 22.31C15.37 22.47 15.04 22.57 14.71 22.59Z" fill="#000000" fill-opacity="1.000000" fill-rule="nonzero"/>
		<path id="Vector" d="M26.24 18.92C24.44 20.54 22.75 22.27 21.17 24.11C19.59 25.93 17.82 27.57 15.88 29C15.66 28.47 14.26 27.49 14.26 27.49C14.26 27.49 11.13 25.35 9.08 23.67C7.97 22.73 6.92 21.73 5.95 20.67L3.95 20.56C6.84 24.76 11.07 27.86 15.95 29.36C16.81 29.22 19.21 27.5 21.02 26.1C23.13 24.28 25.12 22.31 26.96 20.2C27.46 19.62 27.84 18.94 28.1 18.2C27 18.6 26.24 18.92 26.24 18.92Z" fill="#F06351" fill-opacity="1.000000" fill-rule="nonzero"/>
	</g>
</svg>
