<svg width="19.147949" height="20.000000" viewBox="0 0 19.1479 20" fill="none" xmlns="http://www.w3.org/2000/svg" xmlns:xlink="http://www.w3.org/1999/xlink">
	<desc>
			Created with Pixso.
	</desc>
	<defs>
		<clipPath id="clip2403_1625">
			<rect id="phone 1" rx="-0.500000" width="18.148071" height="19.000000" transform="translate(0.500000 0.500000)" fill="white" fill-opacity="0"/>
		</clipPath>
	</defs>
	<rect id="phone 1" rx="-0.500000" width="18.148071" height="19.000000" transform="translate(0.500000 0.500000)" fill="#FFFFFF" fill-opacity="0"/>
	<g clip-path="url(#clip2403_1625)">
		<path id="Vector" d="M17.13 9.4L8.99 9.4L8.99 10.6L17.13 10.6L15.12 12.7L15.98 13.6L18.95 10.5C19.04 10.37 19.1 10.21 19.1 10.05C19.1 9.88 19.04 9.72 18.95 9.59L15.98 6.5L15.12 7.4L17.13 9.4Z" fill="#000000" fill-opacity="1.000000" fill-rule="nonzero"/>
		<path id="Vector" d="M7.75 19.4L7.75 13.2C7.74 13.04 7.67 12.89 7.57 12.78C7.46 12.67 7.32 12.61 7.18 12.6L2.96 12.6C2.97 12.91 3.09 13.21 3.3 13.44C3.52 13.66 3.81 13.79 4.11 13.8L6.51 13.8L6.51 18.79L2.96 18.79C2.74 18.81 2.51 18.78 2.29 18.7C2.08 18.62 1.88 18.5 1.71 18.34C1.54 18.18 1.41 17.99 1.31 17.78C1.21 17.56 1.15 17.33 1.14 17.1L1.14 3.1C1.14 2.63 1.3 2.18 1.61 1.85C1.91 1.51 2.33 1.31 2.77 1.29L6.51 1.29L6.51 6.29L4.21 6.29C3.9 6.3 3.62 6.43 3.4 6.65C3.19 6.88 3.06 7.18 3.06 7.5L7.27 7.5C7.42 7.48 7.56 7.42 7.67 7.31C7.77 7.2 7.83 7.05 7.85 6.9L7.85 0.6C7.8 0.44 7.71 0.3 7.59 0.19C7.48 0.09 7.33 0.02 7.18 0L2.96 0C2.59 -0.02 2.21 0.05 1.86 0.18C1.5 0.32 1.18 0.53 0.9 0.8C0.63 1.07 0.41 1.4 0.25 1.75C0.09 2.11 0.01 2.5 0 2.9L0 16.79C-0.03 17.19 0.02 17.59 0.15 17.97C0.27 18.34 0.47 18.69 0.73 18.98C0.99 19.27 1.31 19.5 1.66 19.66C2.01 19.82 2.39 19.9 2.77 19.9L7.18 19.9C7.25 19.91 7.32 19.91 7.39 19.89C7.46 19.87 7.52 19.84 7.58 19.79C7.63 19.74 7.68 19.68 7.71 19.61C7.74 19.54 7.75 19.47 7.75 19.4Z" fill="#000000" fill-opacity="1.000000" fill-rule="nonzero"/>
	</g>
</svg>
